<?xml version="1.0" encoding="utf-8"?>
<!-- Generator: Adobe Illustrator 17.1.0, SVG Export Plug-In . SVG Version: 6.00 Build 0)  -->
<!DOCTYPE svg PUBLIC "-//W3C//DTD SVG 1.1//EN" "http://www.w3.org/Graphics/SVG/1.1/DTD/svg11.dtd">
<svg version="1.1" id="incoming-call" xmlns="http://www.w3.org/2000/svg" xmlns:xlink="http://www.w3.org/1999/xlink" x="0px"
	 y="0px" viewBox="0 0 1010 1010" enable-background="new 0 0 1010 1010" xml:space="preserve">
<g id="incoming-call-incoming-call">
	<circle id="incoming-call-label" fill="#55415B" cx="505" cy="505" r="505"/>
	<g id="incoming-call-incoming-call_1_">
		<path fill="#F36360" d="M777.5898,670.2676c-0.9648-15.6153-8.6074-30.0889-20.9414-39.6817l-72.9052-56.7607
			c-19.1866-14.9307-48.2881-14.8369-67.3916,0.2588l-16.1973,12.8017c-12.7598,10.0401-32.0703,8.8877-43.5332-2.5224
			L426.208,453.9443c-11.7529-11.7578-12.8428-30.4619-2.5439-43.5019l12.8017-16.2124
			c15.6465-19.7837,15.7608-47.4888,0.2598-67.3921l-56.7505-72.8999c-10.4136-13.3931-26.1431-21.0713-43.1177-21.0713
			c-14.5669,0-28.2612,5.6689-38.5713,15.9888l-46.5752,46.5703c-13.1338,13.1391-31.6557,44.499-8.1294,106.9961
			c21.7408,57.7832,73.9331,128.2636,155.1338,209.4336C535.2959,748.4668,618.418,777.123,664.0898,777.123
			c0.0098,0,0.0098,0,0.0098,0c27.0781,0,42.7031-9.9365,51.0508-18.2831l46.5547-46.5654
			C772.7725,701.207,778.5664,685.9023,777.5898,670.2676z"/>
		<path fill="#FBCD64" d="M758.8496,264.917c-4.2568-4.2617-11.1611-4.2617-15.4277,0L576.6074,431.7363V327.1699
			c0-6.0268-4.8906-10.9013-10.9121-10.9013c-6.0117,0-10.9014,4.8745-10.9014,10.9013v130.8965
			c0,1.4224,0.2803,2.8394,0.8409,4.1685c1.1113,2.6733,3.2393,4.7915,5.8974,5.9023c1.3389,0.5503,2.751,0.8413,4.1631,0.8413
			h130.912c6.0117,0,10.9014-4.875,10.9014-10.9121c0-6.022-4.8897-10.9067-10.9014-10.9067H592.0352l166.8144-166.8091
			C763.1172,276.0889,763.1172,269.1792,758.8496,264.917z"/>
	</g>
</g>
</svg>
